<?xml version="1.0" standalone="no"?>
<!DOCTYPE svg PUBLIC "-//W3C//DTD SVG 20010904//EN"
 "http://www.w3.org/TR/2001/REC-SVG-20010904/DTD/svg10.dtd">
<svg version="1.0" xmlns="http://www.w3.org/2000/svg"
 width="484.000000pt" height="499.000000pt" viewBox="0 0 484.000000 499.000000"
 preserveAspectRatio="xMidYMid meet">

<g transform="translate(0.000000,499.000000) scale(0.100000,-0.100000)"
fill="#000000" stroke="none">
<path d="M1937 4340 c-40 -7 -57 -17 -98 -59 -27 -28 -49 -59 -49 -70 0 -24
31 -46 76 -56 18 -3 40 -15 50 -26 25 -28 74 -24 121 10 44 32 54 60 43 121
-16 86 -36 98 -143 80z m97 -26 c11 -27 7 -54 -9 -60 -22 -9 -18 -23 10 -34
27 -10 28 -11 19 -34 -4 -10 -18 -16 -40 -16 -22 0 -34 -5 -34 -14 0 -16 -27
-29 -41 -20 -14 8 -11 21 16 64 14 22 25 53 25 69 0 42 9 61 30 61 10 0 21 -7
24 -16z m-89 -3 c11 -19 -14 -95 -37 -113 -28 -22 -67 -19 -82 5 -16 27 18 50
62 42 31 -6 33 -5 23 14 -6 10 -16 22 -23 25 -9 3 -7 9 6 20 22 18 42 20 51 7z"/>
<path d="M2639 4327 c-65 -27 -126 -71 -134 -97 -9 -29 31 -128 72 -178 119
-146 233 -202 410 -202 106 0 96 36 -50 183 l-93 94 128 44 c70 24 128 49 128
55 0 16 -102 68 -192 98 -100 34 -191 35 -269 3z m223 -12 c68 -15 169 -61
175 -81 3 -10 -78 -47 -155 -70 -89 -26 -266 -14 -301 20 -12 13 -8 16 29 26
23 6 59 10 79 8 27 -2 35 1 34 12 -2 12 13 15 75 17 42 1 88 6 101 11 22 8 17
11 -42 25 -103 26 -157 21 -272 -28 -36 -16 -38 -16 -25 0 18 22 80 53 127 64
57 13 94 13 175 -4z m-123 -195 c88 -16 125 -37 197 -111 71 -75 98 -114 89
-129 -10 -17 -118 -11 -186 10 -111 34 -197 100 -264 203 -31 47 -10 40 54
-18 45 -43 65 -55 80 -50 14 4 27 -1 42 -19 13 -15 32 -26 44 -26 12 0 36 -16
55 -35 56 -58 71 -43 16 17 -22 24 -30 40 -24 46 17 17 1 28 -60 46 -80 22
-202 100 -129 83 12 -3 51 -11 86 -17z"/>
<path d="M2265 4265 c-22 -7 -53 -17 -70 -22 -23 -6 -31 -15 -33 -37 -2 -16
-15 -44 -29 -62 -33 -44 -24 -70 33 -94 24 -11 44 -24 44 -29 0 -20 33 -41 63
-41 47 0 128 27 143 47 7 10 14 26 14 37 0 10 9 34 21 53 29 46 19 79 -29 101
-20 9 -45 27 -55 40 -21 25 -44 27 -102 7z m74 -21 c15 -11 21 -23 18 -36 -5
-18 -2 -19 32 -13 33 5 39 3 51 -20 13 -25 12 -28 -10 -46 -14 -10 -30 -19
-36 -19 -21 0 -22 -26 -3 -39 36 -22 -14 -55 -63 -41 -19 6 -28 4 -32 -7 -4
-9 -16 -13 -33 -11 -23 2 -29 8 -31 36 -3 31 -5 32 -48 32 -40 0 -44 2 -44 25
0 20 7 26 40 35 44 12 51 25 20 35 -23 7 -26 25 -8 43 16 16 36 15 54 -3 21
-20 34 -19 34 3 0 17 18 42 30 42 3 0 16 -7 29 -16z"/>
<path d="M2277 4143 c-4 -3 -7 -15 -7 -25 0 -14 6 -19 23 -16 29 4 38 48 9 48
-10 0 -22 -3 -25 -7z"/>
<path d="M3002 4149 c-53 -16 -52 -37 6 -90 69 -63 126 -89 235 -105 129 -19
207 -19 207 2 0 27 -121 138 -185 170 -50 24 -74 29 -145 31 -47 1 -100 -2
-118 -8z m246 -44 c56 -26 168 -124 155 -136 -9 -9 -167 6 -235 22 -51 12
-150 70 -131 76 6 2 28 -5 49 -16 24 -13 42 -17 49 -11 11 10 93 -6 110 -21
11 -10 45 -12 45 -2 0 14 -85 78 -105 78 -44 1 -125 17 -125 25 0 28 115 18
188 -15z"/>
<path d="M1635 4093 c-141 -30 -254 -133 -270 -245 l-7 -48 40 0 c70 0 204 31
261 60 61 31 120 88 169 163 50 75 48 77 -70 76 -57 -1 -112 -3 -123 -6z m184
-19 c8 -7 -34 -76 -72 -120 -65 -74 -145 -109 -291 -129 -44 -6 -48 -5 -38 8
7 8 37 25 67 37 30 12 55 28 55 35 0 8 15 18 33 24 34 12 122 89 113 99 -3 3
-37 -9 -74 -26 -81 -38 -85 -38 -77 -12 11 33 -11 22 -41 -21 -28 -41 -69 -79
-86 -79 -4 0 1 18 12 39 35 70 128 125 242 146 63 11 144 10 157 -1z"/>
<path d="M1915 4029 c-18 -19 -18 -22 -3 -52 9 -18 19 -42 23 -54 10 -36 25
-42 85 -31 72 14 84 26 76 73 -11 59 -45 85 -109 85 -42 0 -58 -5 -72 -21z
m55 -14 c11 -13 16 -13 34 -2 12 8 27 12 34 10 19 -7 14 -33 -7 -33 -11 0 -23
-4 -26 -10 -3 -5 -17 -10 -30 -10 -50 0 -69 22 -43 48 16 16 23 15 38 -3z
m100 -69 c0 -9 -14 -16 -37 -18 -21 -3 -46 -8 -55 -12 -29 -13 -21 12 10 28
35 20 82 21 82 2z"/>
<path d="M1271 3989 c-87 -42 -183 -122 -220 -183 -25 -41 -47 -167 -34 -191
8 -13 11 -1 16 51 8 94 29 138 97 205 51 50 164 119 195 119 16 0 0 -139 -26
-223 -25 -77 -79 -147 -140 -178 -22 -11 -39 -16 -39 -13 0 14 53 99 82 133
22 25 27 36 17 42 -10 6 -4 25 23 81 20 40 35 75 32 77 -7 7 -43 -30 -67 -68
-17 -28 -22 -32 -25 -18 -6 29 -30 2 -38 -42 -8 -43 -21 -71 -34 -71 -6 0 -10
7 -10 15 0 8 -4 15 -10 15 -5 0 -10 -15 -10 -34 0 -18 -11 -54 -25 -80 -29
-54 -29 -56 -12 -79 13 -18 149 -47 222 -47 46 0 126 27 188 63 41 25 122 110
146 154 10 20 9 23 -16 30 -16 3 -79 7 -140 7 -70 1 -113 5 -113 11 0 5 9 62
20 125 22 128 23 140 13 140 -5 0 -46 -19 -92 -41z m273 -258 l29 -6 -40 -50
c-41 -52 -87 -91 -138 -118 -26 -13 -33 -13 -49 -1 -18 12 -18 15 -2 39 9 13
38 36 65 50 80 40 76 63 -4 29 -32 -13 -42 -14 -63 -2 -22 11 -26 11 -36 -6
-29 -50 -91 -93 -66 -45 18 33 82 100 105 109 23 10 157 11 199 1z m-221 -185
c9 -7 17 -16 17 -19 0 -10 -87 -19 -120 -12 -37 8 -32 16 18 31 50 16 64 16
85 0z"/>
<path d="M3593 3941 c-61 -10 -85 -35 -77 -80 12 -65 19 -71 83 -71 76 0 96
19 87 84 -7 42 -28 78 -44 75 -4 -1 -26 -5 -49 -8z m57 -34 c0 -7 -5 -18 -12
-25 -9 -9 -8 -16 5 -30 9 -10 17 -21 17 -24 0 -3 -25 -5 -56 -5 -39 0 -52 3
-45 10 16 16 13 37 -4 37 -20 0 -19 29 0 37 9 3 25 -3 36 -13 19 -17 20 -17
26 4 6 23 33 31 33 9z"/>
<path d="M3295 3863 c-64 -20 -75 -29 -75 -65 0 -22 12 -42 45 -75 42 -44 46
-45 87 -39 46 8 108 48 108 72 0 18 -47 95 -68 112 -19 15 -33 14 -97 -5z m95
-18 c11 -13 10 -18 -6 -30 -10 -8 -27 -15 -36 -15 -11 0 -18 -8 -18 -20 0 -23
11 -25 57 -8 42 15 59 2 37 -30 -18 -26 -37 -28 -58 -7 -13 13 -15 13 -21 -5
-4 -11 -15 -20 -27 -20 -15 0 -18 4 -13 18 12 31 10 34 -17 36 -35 2 -52 19
-44 44 9 28 35 36 56 17 22 -20 40 -19 40 3 0 34 28 43 50 17z"/>
<path d="M3510 3696 c-41 -30 -45 -37 -44 -72 1 -30 9 -44 37 -69 19 -16 42
-42 52 -57 20 -33 47 -35 123 -13 59 18 70 33 70 95 0 25 1 50 2 55 9 39 -1
55 -42 65 -24 6 -51 15 -60 20 -35 20 -91 10 -138 -24z m122 -6 c17 -21 38
-26 38 -10 0 6 11 10 25 10 35 0 44 -40 16 -76 -26 -33 -26 -40 -1 -47 11 -3
20 -12 20 -21 0 -20 -36 -39 -61 -33 -11 3 -33 -1 -49 -10 -38 -18 -51 -10
-47 30 2 29 -1 32 -31 35 -21 2 -38 12 -48 27 -18 28 -10 65 14 66 58 4 57 3
54 33 -3 27 -1 28 25 22 15 -4 35 -16 45 -26z"/>
<path d="M3592 3628 c-8 -8 -8 -17 -1 -30 8 -14 14 -16 29 -8 25 14 27 50 2
50 -10 0 -23 -5 -30 -12z"/>
<path d="M912 3589 c-121 -23 -152 -73 -88 -135 20 -19 36 -39 36 -44 0 -23
120 -1 153 28 19 16 23 57 7 67 -5 3 -10 22 -10 41 0 28 -5 36 -26 44 -14 6
-26 10 -27 9 -1 -1 -22 -5 -45 -10z m66 -38 c2 -13 -1 -28 -7 -34 -16 -16 -13
-28 7 -25 12 2 17 -4 17 -22 0 -19 -6 -26 -24 -28 -13 -2 -28 1 -34 7 -9 9
-16 6 -27 -9 -20 -27 -55 -18 -40 10 15 28 12 40 -10 40 -11 0 -20 -4 -20 -10
0 -5 -7 -7 -15 -4 -21 9 -19 51 4 64 33 17 51 11 73 -26 13 -23 24 -32 31 -25
6 6 4 17 -6 32 -12 16 -13 27 -6 41 15 27 53 20 57 -11z"/>
<path d="M3798 3473 c-64 -57 -77 -73 -106 -133 -23 -48 -27 -67 -27 -145 1
-71 5 -100 23 -139 26 -58 82 -135 98 -136 15 0 63 98 71 144 3 20 9 39 13 41
10 6 58 -32 71 -57 10 -18 9 -20 -5 -15 -31 12 -50 -38 -54 -143 -5 -109 9
-174 59 -273 28 -55 164 -227 180 -227 9 0 34 64 53 138 42 160 -1 324 -113
429 -43 42 -36 40 62 -12 42 -22 79 -36 84 -32 12 12 7 152 -7 222 -27 133
-132 281 -245 346 -69 40 -105 38 -157 -8z m158 -13 c52 -33 140 -133 173
-198 17 -34 38 -90 46 -124 15 -67 22 -174 13 -183 -3 -4 -55 18 -114 49 -182
91 -264 201 -264 354 0 96 50 77 103 -38 16 -36 32 -59 34 -52 6 16 33 -3 33
-24 0 -14 93 -142 118 -161 42 -33 43 2 2 42 -16 16 -30 38 -30 50 0 11 -16
36 -35 54 -34 32 -35 34 -19 52 16 18 15 21 -32 67 -44 42 -114 132 -114 146
0 8 49 -12 86 -34z m-202 -97 c-3 -16 -12 -51 -20 -80 -16 -59 -18 -99 -5
-107 5 -3 14 -28 21 -56 15 -63 30 -65 30 -4 0 31 5 51 16 58 12 9 13 17 5 39
-6 16 -11 38 -11 50 1 19 2 20 10 5 6 -9 19 -44 29 -79 22 -67 17 -129 -14
-188 -30 -58 -47 -49 -103 54 -23 43 -27 61 -27 135 1 71 5 95 27 143 28 60
53 78 42 30z m202 -426 c10 -23 21 -78 24 -122 4 -62 8 -80 20 -80 8 0 16 -9
18 -20 7 -44 44 -153 57 -171 19 -25 19 -7 0 46 -19 55 -19 58 5 62 19 3 18 7
-16 57 -21 30 -33 56 -28 58 36 13 38 21 13 60 -42 64 -63 143 -38 143 20 0
79 -71 110 -131 67 -134 69 -225 8 -386 l-10 -26 -40 44 c-66 71 -138 187
-159 256 -29 96 -26 268 5 256 8 -2 21 -23 31 -46z"/>
<path d="M1073 3410 c-41 -24 -41 -36 -3 -88 23 -32 37 -42 58 -42 29 0 102
53 102 74 0 7 -15 26 -33 44 -39 38 -77 41 -124 12z m82 -21 c-5 -15 -1 -19
19 -19 35 0 33 -13 -8 -44 -44 -33 -60 -34 -52 -2 5 20 1 24 -24 30 -18 3 -30
12 -30 21 0 20 19 19 42 -1 19 -18 16 -21 33 32 3 8 10 12 15 9 6 -4 8 -15 5
-26z"/>
<path d="M822 3335 c-12 -9 -36 -21 -54 -27 -44 -15 -78 -47 -78 -74 0 -23 51
-74 75 -74 8 0 23 -13 35 -30 18 -26 28 -30 65 -30 49 0 89 14 123 44 18 16
22 30 22 75 0 78 -8 101 -34 101 -11 1 -32 7 -46 15 -33 19 -80 19 -108 0z
m76 -25 c25 -28 27 -29 45 -12 18 16 20 16 33 -2 12 -17 12 -23 -2 -44 -13
-20 -14 -28 -4 -48 23 -43 -23 -72 -61 -38 -16 14 -18 14 -24 -8 -10 -30 -25
-39 -47 -27 -11 6 -18 21 -18 40 0 26 -3 30 -17 24 -29 -12 -55 -7 -76 13 -24
25 -11 54 33 72 24 10 33 10 45 0 18 -15 18 -15 34 28 16 40 26 40 59 2z"/>
<path d="M867 3254 c-4 -4 -7 -16 -7 -26 0 -14 6 -19 23 -16 14 2 22 10 22 23
0 20 -25 32 -38 19z"/>
<path d="M2165 3257 c-3 -6 -4 -179 -3 -382 3 -321 5 -370 18 -370 12 0 15 18
15 98 1 96 1 98 28 112 15 7 27 13 27 12 3 -27 79 -222 88 -225 19 -6 14 22
-24 139 l-37 109 27 80 c14 44 26 100 26 126 l0 46 -65 -4 -65 -3 0 138 c0
116 -2 137 -15 137 -9 0 -18 -6 -20 -13z m125 -325 c0 -77 -47 -182 -80 -182
-6 0 -10 42 -10 99 0 99 0 99 28 109 52 20 62 15 62 -26z"/>
<path d="M1655 3180 c-8 -14 3 -30 21 -30 8 0 14 9 14 20 0 21 -24 28 -35 10z"/>
<path d="M1355 3171 c-11 -5 -29 -19 -40 -31 -19 -21 -20 -38 -23 -331 -2
-266 -1 -309 12 -309 21 0 28 46 24 159 -1 55 0 102 2 104 3 3 24 14 46 25 82
41 122 141 127 312 l2 75 -65 2 c-36 1 -74 -2 -85 -6z m112 -113 c-7 -119 -28
-177 -78 -223 -21 -19 -43 -35 -48 -35 -14 0 -19 56 -15 185 3 115 4 121 29
143 19 16 39 22 72 22 l46 0 -6 -92z"/>
<path d="M2763 3164 c-50 -25 -54 -54 -51 -374 l3 -285 93 -3 c85 -2 93 -1 90
15 -3 14 -15 17 -73 18 l-70 0 -3 158 -3 157 48 1 c79 1 101 8 88 28 -3 6 -35
11 -71 11 l-64 0 0 110 0 110 33 20 c17 11 49 20 70 20 26 0 37 4 37 15 0 21
-84 20 -127 -1z"/>
<path d="M773 2982 c-72 -116 -96 -192 -97 -302 -1 -86 2 -100 29 -155 16 -33
32 -64 34 -69 4 -10 -102 67 -141 102 -14 13 -31 22 -36 18 -19 -11 -19 -129
-1 -218 42 -209 162 -348 303 -352 35 -1 44 5 97 64 32 36 76 97 96 135 38 69
38 71 38 185 0 115 -23 230 -45 230 -17 0 -120 -133 -147 -190 -15 -30 -35
-66 -45 -79 -15 -20 -19 -21 -24 -7 -9 24 1 75 38 201 45 153 45 267 -1 408
-18 53 -37 97 -44 97 -7 0 -31 -31 -54 -68z m84 -59 c36 -115 37 -243 4 -349
-12 -39 -29 -80 -37 -90 -14 -18 -15 -16 -10 26 3 25 9 56 12 69 6 21 5 22
-14 12 -16 -8 -21 -7 -26 5 -10 27 -7 64 9 94 13 26 13 30 -1 38 -13 7 -14 15
-4 51 6 24 8 46 5 49 -14 14 -34 -33 -40 -94 -5 -43 -13 -67 -23 -73 -15 -8
-14 -14 6 -50 21 -37 42 -141 29 -141 -3 0 -23 28 -44 63 -35 58 -37 67 -36
137 0 53 8 94 25 141 28 76 95 199 108 199 5 0 22 -39 37 -87z m222 -536 c1
-105 -12 -143 -80 -243 -33 -49 -66 -68 -54 -32 3 13 11 46 17 73 5 28 18 65
29 84 13 22 18 43 14 59 -3 14 2 46 11 73 18 50 12 77 -11 46 -7 -10 -19 -15
-29 -11 -14 5 -16 -2 -16 -50 0 -43 -3 -56 -15 -56 -12 0 -15 -14 -15 -67 0
-57 -2 -65 -14 -53 -17 19 -36 76 -36 110 0 44 75 183 122 226 l42 37 17 -49
c12 -33 18 -81 18 -147z m-296 -19 c66 -74 106 -152 107 -210 0 -67 -52 -15
-73 72 -12 52 -20 60 -35 35 -6 -12 -19 -2 -61 50 -29 36 -57 68 -62 71 -13 8
6 -39 36 -85 29 -47 30 -51 11 -51 -33 0 -24 -20 16 -41 24 -12 53 -31 66 -43
l24 -21 -24 -5 c-33 -8 -28 -32 11 -52 32 -16 58 -44 49 -53 -2 -2 -28 5 -58
15 -41 14 -66 31 -98 67 -83 93 -140 260 -126 370 l6 53 75 -52 c42 -29 103
-83 136 -120z"/>
<path d="M1650 2749 c0 -233 1 -250 18 -247 16 3 17 24 20 251 2 242 2 247
-18 247 -20 0 -20 -6 -20 -251z"/>
<path d="M1891 2986 c-14 -8 -28 -22 -32 -32 -13 -32 -10 -390 3 -419 23 -50
114 -49 137 1 25 56 -1 77 -31 24 -18 -32 -48 -39 -67 -16 -13 16 -27 318 -17
372 6 32 38 54 76 54 17 0 20 -7 20 -49 0 -51 15 -75 31 -50 10 16 12 90 3
113 -8 20 -88 21 -123 2z"/>
<path d="M3040 2763 c1 -131 5 -245 9 -252 7 -10 17 -9 49 8 87 45 112 116
112 326 0 124 -3 155 -14 155 -10 0 -14 -35 -18 -163 -4 -133 -9 -171 -25
-207 -20 -46 -47 -80 -64 -80 -5 0 -10 98 -11 222 -3 204 -4 223 -21 226 -16
3 -17 -12 -17 -235z"/>
<path d="M3398 2984 c-43 -23 -51 -69 -46 -255 5 -180 16 -221 63 -233 45 -11
105 33 105 78 0 20 -15 20 -32 1 -32 -38 -41 -45 -57 -45 -26 0 -41 42 -41
114 l0 63 47 6 c74 8 83 26 83 168 l0 119 -47 0 c-27 -1 -60 -7 -75 -16z m92
-107 c0 -111 -12 -137 -66 -137 l-35 0 3 102 c3 98 4 103 28 115 14 7 35 13
48 13 21 0 22 -3 22 -93z"/>
<path d="M3830 2455 c-50 -26 -61 -47 -49 -89 5 -16 6 -39 3 -52 -10 -38 12
-61 72 -79 84 -24 102 -19 146 44 21 30 38 64 38 75 0 29 -108 126 -140 125
-14 0 -45 -11 -70 -24z m108 -7 c7 -7 12 -20 12 -30 0 -10 8 -21 18 -24 54
-17 62 -35 29 -67 -14 -12 -27 -34 -29 -47 -2 -16 -12 -28 -31 -34 -25 -9 -31
-7 -51 19 -20 25 -26 27 -39 16 -31 -25 -50 9 -22 39 14 16 14 20 -9 47 -25
30 -25 30 -6 48 16 14 23 16 32 7 20 -20 38 -14 38 13 0 19 5 25 23 25 13 0
28 -5 35 -12z"/>
<path d="M3870 2364 c0 -3 4 -14 10 -24 12 -23 50 -15 50 11 0 14 -7 19 -30
19 -16 0 -30 -3 -30 -6z"/>
<path d="M4083 2298 c-17 -22 -23 -47 -13 -53 6 -4 10 -24 10 -45 0 -34 4 -42
30 -55 16 -8 45 -15 64 -15 30 0 40 6 66 42 36 49 37 58 8 85 -53 48 -143 70
-165 41z m98 -31 c29 -16 45 -31 47 -46 3 -18 -1 -22 -15 -19 -10 2 -19 12
-21 23 -6 33 -22 42 -28 17 -8 -27 -24 -28 -55 -4 -26 22 -21 52 9 52 10 0 39
-10 63 -23z m-1 -97 c0 -25 -11 -25 -41 0 l-24 19 33 1 c25 0 32 -4 32 -20z"/>
<path d="M3900 2091 c-14 -5 -39 -6 -57 -3 -40 6 -65 -19 -98 -97 -27 -65 -23
-88 22 -109 38 -18 71 -71 52 -83 -7 -4 -39 -12 -73 -19 -134 -26 -157 -33
-199 -63 -56 -40 -111 -106 -144 -171 -14 -28 -32 -59 -40 -68 -17 -19 -10
-38 14 -38 11 0 5 -13 -20 -49 -34 -47 -151 -270 -145 -277 2 -1 41 6 87 17
104 24 235 84 288 132 42 39 53 39 53 0 0 -13 6 -23 14 -23 20 0 125 80 163
123 94 108 119 273 58 389 l-25 48 27 11 c19 7 40 6 74 -2 41 -11 51 -10 73 5
16 10 26 26 26 41 0 13 7 30 15 37 39 33 45 41 45 62 0 23 -37 66 -58 66 -6 0
-18 13 -26 28 -23 44 -69 60 -126 43z m90 -26 c10 -12 10 -19 2 -27 -23 -23
-13 -38 26 -38 69 0 97 -62 35 -76 -56 -12 -57 -13 -39 -32 23 -26 20 -46 -8
-62 -31 -16 -54 -8 -66 25 -10 27 -30 34 -30 10 0 -14 -29 -35 -49 -35 -6 0
-16 11 -24 25 -7 14 -28 33 -47 43 -45 22 -50 53 -15 76 18 12 25 24 22 36 -9
34 16 54 59 47 27 -4 45 -1 58 8 26 19 60 19 76 0z m-292 -327 c-2 -7 -34 -28
-72 -47 -50 -24 -65 -36 -55 -42 12 -8 12 -11 -1 -18 -65 -40 -67 -60 -4 -32
23 11 51 22 63 26 20 6 21 5 9 -22 -23 -54 -69 -93 -136 -113 -87 -27 -105
-26 -96 3 22 71 84 159 139 197 70 48 162 77 153 48z m74 -47 c-6 -20 -13 -53
-16 -75 -3 -21 -12 -46 -21 -56 -19 -21 -19 -40 0 -40 20 0 19 -23 -5 -70 -27
-53 -25 -71 5 -37 25 28 65 141 65 183 0 16 6 24 16 24 14 0 16 8 10 48 -4 33
-2 54 8 67 13 18 14 17 31 -8 23 -35 30 -133 15 -196 -6 -28 -29 -77 -49 -109
-38 -58 -135 -146 -155 -139 -14 5 -35 124 -35 202 -1 73 40 169 97 228 40 41
50 35 34 -22z m-233 -237 c-7 -9 -35 -25 -61 -37 -54 -23 -63 -42 -19 -35 37
5 31 -9 -29 -69 -41 -40 -46 -63 -13 -63 9 0 31 16 50 36 27 29 36 34 48 24
12 -10 16 -9 20 6 12 36 66 146 70 142 3 -3 9 -27 14 -54 7 -36 6 -55 -4 -74
-17 -32 -93 -89 -170 -128 -62 -31 -170 -60 -181 -49 -12 12 95 212 133 249
37 36 98 66 137 67 16 1 17 -1 5 -15z"/>
<path d="M3880 1982 c0 -25 23 -44 44 -36 28 11 16 48 -16 52 -22 3 -28 -1
-28 -16z"/>
<path d="M981 1990 c-55 -26 -70 -45 -71 -93 0 -45 15 -77 36 -77 9 0 27 -9
41 -20 37 -29 60 -25 120 20 54 42 69 76 41 99 -7 6 -35 29 -61 51 -27 22 -51
40 -55 40 -4 0 -27 -9 -51 -20z m74 -20 c4 -12 25 -32 46 -46 44 -28 48 -51
11 -70 -12 -6 -33 -21 -46 -33 -29 -28 -44 -27 -52 4 -3 14 -10 22 -16 19 -5
-3 -19 -3 -32 0 -19 5 -22 12 -21 48 1 38 5 46 41 70 47 33 61 34 69 8z"/>
<path d="M1002 1908 c-20 -20 -14 -38 12 -38 25 0 37 15 28 38 -5 15 -24 16
-40 0z"/>
<path d="M1290 1868 c-8 -12 -25 -32 -37 -44 -40 -37 -25 -85 34 -109 58 -25
75 -20 101 28 29 54 28 72 -4 94 -14 10 -34 26 -45 36 -25 22 -32 22 -49 -5z
m60 -43 c30 -15 41 -45 18 -45 -7 0 -29 14 -48 30 -26 22 -31 30 -17 30 10 0
31 -7 47 -15z m-70 -51 c0 -16 -16 -19 -25 -4 -8 13 4 32 16 25 5 -4 9 -13 9
-21z m78 -31 c2 -8 -6 -13 -22 -13 -25 0 -33 10 -19 24 10 10 36 3 41 -11z"/>
<path d="M1060 1684 c-87 -79 -80 -64 -63 -135 18 -80 32 -96 91 -103 26 -3
66 -8 90 -12 33 -5 47 -2 62 11 11 10 20 24 20 31 0 7 13 28 28 46 16 18 31
40 35 49 8 24 -19 57 -61 74 -20 9 -46 27 -58 41 -14 17 -35 27 -61 31 -37 5
-45 2 -83 -33z m126 -14 c12 -18 32 -34 58 -42 66 -22 78 -78 17 -78 -35 0
-47 -13 -26 -30 19 -16 19 -29 -2 -52 -26 -29 -70 -23 -88 12 -17 34 -27 37
-45 15 -14 -17 -56 -20 -65 -5 -3 5 0 18 6 28 10 16 9 23 -10 43 -29 31 -23
51 17 63 23 6 32 15 32 30 0 31 19 46 56 46 26 0 37 -6 50 -30z"/>
<path d="M1104 1578 c3 -13 6 -26 6 -30 0 -5 14 -8 30 -8 25 0 30 4 30 24 0
25 -16 36 -52 36 -16 0 -19 -5 -14 -22z"/>
<path d="M1320 1352 c0 -5 27 -49 59 -98 129 -195 286 -296 459 -293 53 0 154
30 160 47 4 14 -39 81 -97 150 -49 59 -145 121 -233 151 -32 11 -115 27 -185
35 -148 18 -163 19 -163 8z m234 -37 c129 -20 229 -66 307 -144 31 -31 64 -71
72 -88 l17 -32 -33 10 c-17 5 -33 9 -34 9 -1 0 -18 14 -37 31 -36 31 -60 32
-49 1 6 -15 4 -15 -22 2 -17 10 -47 36 -67 58 -21 22 -42 37 -48 33 -8 -5 -7
-12 2 -23 12 -15 -56 20 -107 55 -23 16 -35 17 -35 3 0 -6 32 -34 71 -62 63
-46 69 -53 50 -60 -30 -11 -26 -28 7 -28 55 0 247 -67 247 -86 0 -5 -30 -10
-67 -12 -137 -6 -281 83 -403 248 -36 49 -65 92 -65 95 0 10 95 5 194 -10z"/>
<path d="M1948 1333 c-27 -2 -48 -6 -48 -8 0 -2 20 -46 46 -97 47 -97 77 -136
132 -170 17 -11 32 -23 32 -26 0 -4 -22 -17 -50 -30 -54 -25 -288 -250 -267
-257 17 -5 123 -14 267 -21 141 -7 177 2 280 67 50 32 140 141 140 169 0 4
-15 28 -33 52 -18 24 -49 73 -68 108 -85 162 -221 229 -431 213z m223 -42 c32
-12 77 -39 101 -61 42 -37 116 -155 104 -167 -11 -11 -58 9 -94 41 -20 18 -49
36 -65 40 -15 3 -44 21 -65 40 -52 46 -82 62 -82 41 0 -8 11 -20 25 -25 14 -5
25 -12 25 -14 0 -3 -7 -3 -15 0 -9 4 -15 0 -15 -9 0 -8 18 -22 39 -31 27 -10
41 -22 43 -38 2 -17 11 -24 38 -29 33 -5 86 -28 78 -33 -1 -2 -37 0 -79 4 -87
7 -152 39 -193 93 -25 32 -76 138 -76 157 0 26 154 20 231 -9z m200 -298 l44
-20 -60 -30 c-47 -24 -157 -64 -172 -63 -29 2 -43 -4 -48 -20 -5 -17 -15 -20
-61 -20 -30 0 -54 -4 -54 -10 0 -5 12 -10 26 -10 15 0 32 -8 39 -17 12 -15 17
-15 74 10 34 15 75 27 91 27 17 0 43 13 68 33 52 43 99 64 114 49 16 -16 -91
-115 -160 -149 -42 -21 -74 -28 -139 -31 -74 -4 -255 12 -275 24 -7 5 3 18 81
107 70 81 108 108 186 134 56 18 189 11 246 -14z"/>
<path d="M2855 1260 c-11 -5 -35 -25 -54 -44 -40 -42 -38 -67 10 -121 29 -32
35 -35 89 -35 41 0 64 5 77 18 22 19 46 92 38 114 -4 11 -127 80 -138 77 -1 0
-11 -4 -22 -9z m42 -30 c4 -14 17 -22 45 -26 43 -7 61 -31 34 -46 -10 -6 -15
-18 -12 -32 5 -30 -7 -48 -27 -40 -12 4 -17 18 -17 49 0 48 -13 64 -36 44 -11
-9 -13 -23 -9 -51 6 -34 5 -38 -14 -38 -12 0 -21 4 -21 9 0 5 -12 23 -26 40
l-26 31 31 11 c18 7 31 18 31 28 0 18 18 41 33 41 5 0 11 -9 14 -20z"/>
<path d="M2626 1047 c-18 -18 -40 -36 -49 -40 -28 -10 -31 -35 -11 -79 27 -60
50 -86 87 -94 17 -3 43 -15 56 -25 52 -41 136 -3 130 59 -2 15 5 42 15 61 10
19 15 43 12 57 -6 23 -51 54 -79 54 -8 0 -22 9 -32 20 -30 33 -90 27 -129 -13z
m127 -22 c4 -8 18 -15 33 -15 30 0 64 -25 64 -47 0 -7 -11 -19 -25 -25 -27
-12 -31 -28 -15 -59 9 -15 6 -24 -14 -44 -30 -30 -40 -31 -66 -5 -25 25 -26
57 -3 82 13 15 15 23 6 36 -26 42 -78 3 -54 -41 15 -29 8 -47 -19 -47 -20 0
-80 77 -80 103 0 22 23 37 48 30 18 -4 22 -1 22 16 0 11 9 30 20 41 19 19 23
19 49 6 16 -9 31 -22 34 -31z"/>
<path d="M3000 1023 c-23 -9 -30 -24 -30 -70 0 -32 5 -46 22 -57 31 -22 101
-21 121 2 22 24 22 74 0 100 -18 21 -86 36 -113 25z m93 -67 c5 -33 -7 -56
-28 -56 -22 0 -26 28 -4 35 10 4 19 11 19 16 0 12 -27 12 -35 -1 -11 -18 -35
-10 -41 14 -9 37 1 45 45 33 33 -9 40 -15 44 -41z"/>
</g>
</svg>
